<?xml version="1.0" encoding="UTF-8" standalone="no"?>
<svg xmlns="http://www.w3.org/2000/svg" xmlns:xlink="http://www.w3.org/1999/xlink" class="card" face="4C" height="3.5in" preserveAspectRatio="none" viewBox="-106 -164.5 212 329" width="2.25in"><defs><symbol id="SC4" viewBox="-600 -600 1200 1200" preserveAspectRatio="xMinYMid"><path d="M-100 500L100 500L100 340A260 260 0 1 0 200 -150A230 230 0 1 0 -200 -150A260 260 0 1 0 -100 340Z" fill="black"></path></symbol><symbol id="VC4" viewBox="-500 -500 1000 1000" preserveAspectRatio="xMinYMid"><path d="M50 460L250 460M150 460L150 -460L-300 175L-300 200L270 200" stroke="black" stroke-width="80" stroke-linecap="square" stroke-miterlimit="1.5" fill="none"></path></symbol></defs><rect width="211" height="328" x="-105.5" y="-164" rx="19" ry="19" fill="white" stroke="black"></rect><use xlink:href="#VC4" height="50" width="50" x="-104" y="-145.5"></use><use xlink:href="#SC4" height="40.675" width="40.675" x="-99.337" y="-90.5"></use><use xlink:href="#SC4" height="40" width="40" x="-59.001" y="-117.601"></use><use xlink:href="#SC4" height="40" width="40" x="19.001" y="-117.601"></use><g transform="rotate(180)"><use xlink:href="#VC4" height="50" width="50" x="-104" y="-145.5"></use><use xlink:href="#SC4" height="40.675" width="40.675" x="-99.337" y="-90.5"></use><use xlink:href="#SC4" height="40" width="40" x="-59.001" y="-117.601"></use><use xlink:href="#SC4" height="40" width="40" x="19.001" y="-117.601"></use></g></svg>