<?xml version="1.0" encoding="UTF-8" standalone="no"?>
<svg xmlns="http://www.w3.org/2000/svg" xmlns:xlink="http://www.w3.org/1999/xlink" class="card" face="KS" height="3.5in" preserveAspectRatio="none" viewBox="-106 -164.5 212 329" width="2.25in"><defs><symbol id="SSK" viewBox="-600 -600 1200 1200" preserveAspectRatio="xMinYMid"><path d="M0 -500C350 -250 460 -100 460 100C460 300 260 340 210 340C110 340 55 285 100 300L130 500L-130 500L-100 300C-55 285 -110 340 -210 340C-260 340 -460 300 -460 100C-460 -100 -350 -250 0 -500Z" fill="black"></path></symbol><symbol id="VSK" viewBox="-500 -500 1000 1000" preserveAspectRatio="xMinYMid"><path d="M-285 -460L-85 -460M-185 -460L-185 460M-285 460L-85 460M85 -460L285 -460M185 -440L-170 155M85 460L285 460M185 440L-10 -70" stroke="black" stroke-width="80" stroke-linecap="square" stroke-miterlimit="1.5" fill="none"></path></symbol></defs><rect width="211" height="328" x="-105.5" y="-164" rx="19" ry="19" fill="white" stroke="black"></rect><use xlink:href="#VSK" height="108" width="108" x="-54" y="-54"></use><use xlink:href="#VSK" height="50" width="50" x="-104" y="-145.5"></use><use xlink:href="#SSK" height="40.675" width="40.675" x="-99.337" y="-90.5"></use><g transform="rotate(180)"><use xlink:href="#VSK" height="50" width="50" x="-104" y="-145.5"></use><use xlink:href="#SSK" height="40.675" width="40.675" x="-99.337" y="-90.5"></use></g></svg>