<?xml version="1.0" encoding="UTF-8" standalone="no"?>
<svg xmlns="http://www.w3.org/2000/svg" xmlns:xlink="http://www.w3.org/1999/xlink" class="card" face="QH" height="3.5in" preserveAspectRatio="none" viewBox="-106 -164.5 212 329" width="2.25in"><defs><symbol id="SHQ" viewBox="-600 -600 1200 1200" preserveAspectRatio="xMinYMid"><path d="M0 -300A230 230 0 0 1 460 -150C400 0 200 300 0 500C-200 300 -400 0 -460 -150A230 230 0 0 1 0 -300Z" fill="red"></path></symbol><symbol id="VHQ" viewBox="-500 -500 1000 1000" preserveAspectRatio="xMinYMid"><path d="M-260 100C40 100 -40 460 260 460M-175 0L-175 -285A175 175 0 0 1 175 -285L175 285A175 175 0 0 1 -175 285Z" stroke="red" stroke-width="80" stroke-linecap="square" stroke-miterlimit="1.5" fill="none"></path></symbol></defs><rect width="211" height="328" x="-105.5" y="-164" rx="19" ry="19" fill="white" stroke="black"></rect><use xlink:href="#VHQ" height="108" width="108" x="-54" y="-54"></use><use xlink:href="#VHQ" height="50" width="50" x="-104" y="-145.5"></use><use xlink:href="#SHQ" height="40.675" width="40.675" x="-99.337" y="-90.5"></use><g transform="rotate(180)"><use xlink:href="#VHQ" height="50" width="50" x="-104" y="-145.5"></use><use xlink:href="#SHQ" height="40.675" width="40.675" x="-99.337" y="-90.5"></use></g></svg>